{"title":"The Butcher 2007 DVDRip English Subtitles Xvid LKRG","uid":10918273,"size":931606268,"categoryP":"video","categoryS":"movies","magnet":"?xt=urn:btih:92d3fa45081432713f26333f56dda1d6ce3772ee&amp;dn=The+Butcher+2007+DVDRip+English+Subtitles+Xvid+LKRG&amp;tr=udp%3A%2F%2Ftracker.openbittorrent.com%3A80&amp;tr=udp%3A%2F%2Fopen.demonii.com%3A1337&amp;tr=udp%3A%2F%2Ftracker.coppersurfer.tk%3A6969&amp;tr=udp%3A%2F%2Fexodus.desync.com%3A6969","seeders":4,"leechers":4,"uploader":".BONE.","files":2,"time":1409318456,"description":"PLOT\n\nThe making of a snuff film from both the perspectives the killers and of the victims.\n\nRuntime ..........: 1h 14mn\nFile Size ........: 888 MB\nResolution .......: 704 x 480 &lt;a href=&quot;\nhttp://www.imdb.com/title/tt2349554/&quot; rel=&quot;nofollow&quot; target=&quot;_NEW&quot;&gt;\nhttp://www.imdb.com/title/tt2349554/&lt;/a&gt;\nGenre ............: Horror\nLanguage .........: Korean\nSubtitles ........: English\nComplete name : The Butcher 2007 DVDRip English Subtitles Xvid LKRGTButcher_LKRG.avi\nFormat : AVI\nFormat/Info : Audio Video Interleave\nFile size : 888 MiB\nDuration : 1h 14mn\nOverall bit rate : 1 657 Kbps\nWriting application : VirtualDubMod 1.5.10.2 (build 2540/release)\nWriting library : VirtualDubMod build 2540/release\nVideo\nID : 0\nFormat : MPEG-4 Visual\nFormat profile : Advanced Simple@L5\nFormat settings, BVOP : 2\nFormat settings, QPel : No\nFormat settings, GMC : No warppoints\nFormat settings, Matrix : Default (H.263)\nMuxing mode : Packed bitstream\nCodec ID : XVID\nCodec ID/Hint : XviD\nDuration : 1h 14mn\nBit rate : 1 421 Kbps\nWidth : 704 pixels\nHeight : 480 pixels\nDisplay aspect ratio : 16:9\nFrame rate : 29.970 fps\nStandard : NTSC\nColor space : YUV\nChroma subsampling : 4:2:0\nBit depth : 8 bits\nScan type : Progressive\nCompression mode : Lossy\nBits/(Pixel*Frame) : 0.140\nStream size : 762 MiB (86%)\nWriting library : XviD 1.2.1 (UTC 2008-12-04)\nAudio\nID : 1\nFormat : AC-3\nFormat/Info : Audio Coding 3\nMode extension : CM (complete main)\nFormat settings, Endianness : Big\nCodec ID : 2000\nDuration : 1h 14mn\nBit rate mode : Constant\nBit rate : 224 Kbps\nChannel(s) : 2 channels\nChannel positions : Front: L R\nSampling rate : 48.0 KHz\nBit depth : 16 bits\nCompression mode : Lossy\nStream size : 120 MiB (14%)\nAlignment : Split accross interleaves\nInterleave, duration : 33 ms (1.00 video frame)\nInterleave, preload duration : 500 ms\n\n","torrent":{"xt":"urn:btih:92d3fa45081432713f26333f56dda1d6ce3772ee","amp;dn":"The+Butcher+2007+DVDRip+English+Subtitles+Xvid+LKRG","amp;tr":["udp%3A%2F%2Ftracker.openbittorrent.com%3A80","udp%3A%2F%2Fopen.demonii.com%3A1337","udp%3A%2F%2Ftracker.coppersurfer.tk%3A6969","udp%3A%2F%2Fexodus.desync.com%3A6969"],"infoHash":"92d3fa45081432713f26333f56dda1d6ce3772ee","infoHashBuffer":{"type":"Buffer","data":[146,211,250,69,8,20,50,113,63,38,51,63,86,221,161,214,206,55,114,238]},"announce":[],"urlList":[]}}